<svg xmlns="http://www.w3.org/2000/svg" viewBox="0 0 640 480">
  <defs>
    <linearGradient id="prism-bg" x1="0" y1="0" x2="1" y2="1">
      <stop stop-color="#26004f" />
      <stop offset=".5" stop-color="#ff1f8f" />
      <stop offset="1" stop-color="#ffef19" />
    </linearGradient>
    <pattern id="prism-grid" width="40" height="40" patternUnits="userSpaceOnUse">
      <path d="M40 0H0V40" fill="none" stroke="#79fff7" stroke-opacity=".34" stroke-width="2" />
    </pattern>
    <filter id="prism-shadow"><feDropShadow dx="8" dy="8" stdDeviation="0" flood-color="#140027" /></filter>
  </defs>
  <rect width="640" height="480" fill="url(#prism-bg)" />
  <rect width="640" height="480" fill="url(#prism-grid)" />
  <path d="M55 402 218 62l166 340Z" fill="#12e8d0" stroke="#140027" stroke-width="14" filter="url(#prism-shadow)" />
  <circle cx="438" cy="154" r="112" fill="#6c1cff" stroke="#fff7d1" stroke-width="12" />
  <circle cx="438" cy="154" r="63" fill="#ffef19" />
  <path d="M385 153q53-60 106 0-53 60-106 0Z" fill="#fff" stroke="#140027" stroke-width="10" />
  <circle cx="438" cy="153" r="23" fill="#140027" />
  <rect x="308" y="302" width="265" height="112" rx="56" fill="#ff5bb4" stroke="#140027" stroke-width="12" transform="rotate(-8 440 358)" />
  <path d="m350 356 36-28 37 28 37-28 38 28 38-28" fill="none" stroke="#fff7d1" stroke-linecap="round" stroke-linejoin="round" stroke-width="14" />
  <g fill="#fff7d1">
    <circle cx="92" cy="72" r="12" /><circle cx="134" cy="44" r="7" /><circle cx="565" cy="67" r="10" />
    <circle cx="599" cy="112" r="6" /><circle cx="263" cy="436" r="9" />
  </g>
  <text x="50" y="454" fill="#140027" font-family="monospace" font-size="22" font-weight="700">CHROMA / TRIPLICATE / 03</text>
</svg>
